<svg xmlns="http://www.w3.org/2000/svg" viewBox="0 0 31.95 28.31"><title>logo</title><path d="M16,0A15.76,15.76,0,0,1,26.26,3.78a15.91,15.91,0,0,1,5.12,16.39,1.4,1.4,0,0,1-.09.29.75.75,0,0,1-.82.44.73.73,0,0,1-.59-.76,1.55,1.55,0,0,1,0-.29A13.22,13.22,0,0,0,30.46,16,14.51,14.51,0,0,0,22.54,3.07,14.45,14.45,0,0,0,9.64,3,14.42,14.42,0,0,0,1.51,15.21,14.36,14.36,0,0,0,3.9,24a4,4,0,0,1,.23.34.75.75,0,0,1-.22,1,.7.7,0,0,1-1-.11,6.7,6.7,0,0,1-.74-1.11,15.07,15.07,0,0,1-2.05-5.9A15.65,15.65,0,0,1,3.74,5.73,16,16,0,0,1,16,0Z" fill="#fff"/><path d="M2.42,16A13.51,13.51,0,0,1,9.53,4.08,12.46,12.46,0,0,1,14.2,2.56a13.58,13.58,0,0,1,14.74,9.55c0,.13.08.26.11.39a.74.74,0,0,1-1.43.4c-.09-.25-.14-.5-.23-.75a11.72,11.72,0,0,0-8.94-7.94A11.53,11.53,0,0,0,7.89,7.06,11.46,11.46,0,0,0,4.09,14a11.81,11.81,0,0,0,2.76,9.83,11.64,11.64,0,0,0,3.82,3A2,2,0,0,1,11,27a.73.73,0,0,1-.71,1.27,9.78,9.78,0,0,1-1-.52,13.54,13.54,0,0,1-6.5-8.81A12.8,12.8,0,0,1,2.42,16Z" fill="#fff"/><path d="M16,4.88A11,11,0,0,1,23.68,8a.89.89,0,0,1,.35.67.7.7,0,0,1-.39.64.68.68,0,0,1-.74,0,1.27,1.27,0,0,1-.25-.21,9.5,9.5,0,0,0-5.4-2.62A9.6,9.6,0,0,0,6.52,14.29a9.31,9.31,0,0,0,2.19,8,9.38,9.38,0,0,0,6,3.25,7.14,7.14,0,0,0,2,0,.76.76,0,0,1,.66.17A.73.73,0,0,1,17,27a8.18,8.18,0,0,1-1.64.05,10.77,10.77,0,0,1-4.47-1.25,10.74,10.74,0,0,1-5.81-8A10.7,10.7,0,0,1,8.37,7.91,10.54,10.54,0,0,1,14.54,5L15,4.92Z" fill="#fff"/><path d="M8.81,15.92a7.16,7.16,0,0,0,6,7.14A7,7,0,0,0,19.9,22a1.27,1.27,0,0,1,.46-.24.75.75,0,0,1,.83.43.72.72,0,0,1-.24.89,5.86,5.86,0,0,1-.92.57,8.42,8.42,0,0,1-4.77,1A8.66,8.66,0,1,1,18,7.55a1.36,1.36,0,0,1,.25.07.74.74,0,0,1-.4,1.43,11,11,0,0,0-1.28-.22,6.58,6.58,0,0,0-3.16.46,7.08,7.08,0,0,0-4.46,5.29A6,6,0,0,0,8.81,15.92Z" fill="#fff"/><path d="M15.94,22.19A6.21,6.21,0,0,1,14.16,10a1.37,1.37,0,0,1,.29-.07.71.71,0,0,1,.81.54.73.73,0,0,1-.41.86,2.34,2.34,0,0,1-.24.09,4.6,4.6,0,0,0-3.29,3.64,4.74,4.74,0,0,0,8.89,3,1.27,1.27,0,0,1,.12-.23.73.73,0,0,1,1-.24.72.72,0,0,1,.36.88,4.47,4.47,0,0,1-.76,1.28A6.18,6.18,0,0,1,15.94,22.19Z" fill="#fff"/></svg>