<svg xmlns="http://www.w3.org/2000/svg" viewBox="0 0 670.92 594.48"><title>logo_2</title><path d="M335.39,0c81.3,1.11,153.76,26.69,216,79.39,62.6,53,100.87,120.38,114.82,201.19,8.31,48.11,5.52,95.9-7.31,143.05a44.78,44.78,0,0,1-1.86,6,15.83,15.83,0,0,1-17.24,9.24A15.29,15.29,0,0,1,627.47,423a24.18,24.18,0,0,1,.88-6.16A285.4,285.4,0,0,0,639.56,336c-.15-53.61-13.1-104-39.85-150.71Q554.38,106.22,473.34,64.48a295.74,295.74,0,0,0-97.87-30.41c-60.54-8-118.42,1.15-173.09,28C134.81,95.28,85.91,146.87,55.74,215.91a293.62,293.62,0,0,0-24,103.56c-3.41,67,13.55,128.26,50.21,184.25,1.57,2.39,3.35,4.67,4.7,7.18a15.65,15.65,0,0,1-4.56,20.21c-6.68,4.67-14.88,4-20.44-2.37-6.21-7.06-10.75-15.33-15.53-23.39C23.38,467,8.65,425.72,3.08,381.6-9.28,283.8,15.54,196.19,78.62,120.27,126.24,63,187.05,26.12,259.54,8.81A325.17,325.17,0,0,1,335.39,0Z" fill="#fff"/><path d="M50.72,335.12c4.68-110.06,53-194.19,149.4-249.37,30.38-17.38,63.37-27.83,98-32.07C365,45.49,427.71,58.36,485,94.19c60.74,37.95,101.53,91.48,122.6,160,.84,2.74,1.77,5.46,2.35,8.25,1.72,8.35-2.84,16.2-10.58,18.48-8.21,2.42-16.43-1.74-19.41-10.1-1.84-5.14-3-10.5-4.89-15.63-32.33-89.61-95-146.6-187.7-166.78-83.13-18.1-158,3.21-221.74,59.9C121.91,187.17,95,236.22,85.85,293.94c-12.32,77.41,7.71,146.44,58,206.52,22.2,26.51,49.27,46.94,80.24,62.25a40.16,40.16,0,0,1,6.75,3.87,15.25,15.25,0,0,1,4.42,19.56c-3.78,7-11.81,10.33-19.35,7.09a185.67,185.67,0,0,1-21.55-11Q87.13,518.62,58,397.25A276.67,276.67,0,0,1,50.72,335.12Z" fill="#fff"/><path d="M335.1,102.39C398,103.2,451.94,125,497.31,167.84c4.09,3.87,7.27,8,7.17,14.09s-2.82,10.56-8,13.34a14.64,14.64,0,0,1-15.59-.42,34.84,34.84,0,0,1-5.39-4.48q-47.71-45.78-113.23-54.83C255.59,120.91,155.16,193.8,136.81,300.05c-10.83,62.73,4.71,118.86,46.05,167.28C216,506.16,258.6,528.49,309,535.67c13.64,1.94,27.44,2.93,41.25.93,5.09-.74,9.89.2,13.89,3.68,5,4.34,6.9,9.87,5,16.18s-6.25,10-12.89,10.95a162,162,0,0,1-34.3.91c-33.12-2.2-64.78-10.21-94-26.11-67.33-36.59-109.49-92.39-122-168.1-13.45-81,10.88-151,69.77-208,36-34.87,79.72-55.15,129.61-61.61,3.1-.4,6.18-1,9.29-1.17C321.59,102.92,328.61,102.68,335.1,102.39Z" fill="#fff"/><path d="M184.94,334.32C183.83,405.16,235,471.5,310.56,484.11c38.53,6.43,74.52-1.26,107.4-22.67,3-2,5.89-4.33,9.62-5a15.4,15.4,0,0,1,17.29,9,15.13,15.13,0,0,1-5,18.81,141.44,141.44,0,0,1-19.23,11.94c-31.42,16.64-65,23.73-100.31,20.65A182.29,182.29,0,0,1,157,370.93c-18.42-93.78,38.11-181.65,123.37-208.78,32-10.19,64.38-11.14,97.07-3.7a47.58,47.58,0,0,1,5.26,1.45c8.57,3,12.88,10.82,10.59,19.09s-10.07,13-18.82,11a208.63,208.63,0,0,0-26.88-4.54,138.86,138.86,0,0,0-66.53,9.7c-50.46,20.58-81.51,57.88-93.48,111A117.75,117.75,0,0,0,184.94,334.32Z" fill="#fff"/><path d="M334.79,466c-59.93.92-118.28-43.48-128.7-110.73-10.07-65,30-126.32,91.26-144.7a39.52,39.52,0,0,1,6-1.47,15.22,15.22,0,0,1,17.17,11.38,15.5,15.5,0,0,1-8.64,18.11,48.38,48.38,0,0,1-5.17,1.76c-37.68,12.3-61,38-69,76.59C226.89,370,261.94,422.07,315,432.83,359.9,442,403,421,424.28,380.3a45.23,45.23,0,0,1,2.59-4.81,15.26,15.26,0,0,1,20-5c6.92,3.61,10.09,11,7.44,18.48-3.5,9.92-9.41,18.57-15.82,26.77C413.58,447.67,374.05,467.05,334.79,466Z" fill="#fff"/></svg>